HIERARCHY
ROOT pelvis
{
  OFFSET 0 100 0
  CHANNELS 6 Xposition Yposition Zposition Zrotation Xrotation Yrotation
  JOINT pelvis_right_femur
  {
    OFFSET -10.78128 -3.44521 -0.5502486
    CHANNELS 3 Zrotation Xrotation Yrotation
    JOINT right_femur_tibia
    {
      OFFSET -0.8047443 -44.0398 -0.1307829
      CHANNELS 3 Zrotation Xrotation Yrotation
      JOINT right_tibia_foot
      {
        OFFSET 3.006224 -47.83518 -5
        CHANNELS 3 Zrotation Xrotation Yrotation
        End Site
        {
          OFFSET 0 -5 15
        }
      }
    }
  }
  JOINT pelvis_left_femur
  {
    OFFSET 10.78128 -3.44521 -0.5502486
    CHANNELS 3 Zrotation Xrotation Yrotation
    JOINT left_femur_tibia
    {
      OFFSET 0.8047443 -44.0398 -0.1307829
      CHANNELS 3 Zrotation Xrotation Yrotation
      JOINT left_tibia_foot
      {
        OFFSET -4.370144 -48.10324 -4.275266
        CHANNELS 3 Zrotation Xrotation Yrotation
        End Site
        {
          OFFSET 0 -5 15
        }
      }
    }
  }
  JOINT pelvis_spine1
  {
    OFFSET 0 6.468898 -3.129235
    CHANNELS 3 Zrotation Xrotation Yrotation
    JOINT spine1
    {
      OFFSET 0 23.15396 4.99043
      CHANNELS 3 Zrotation Xrotation Yrotation
      JOINT spine2
      {
        OFFSET 0 20.79997 -5.064912
        CHANNELS 3 Zrotation Xrotation Yrotation
        JOINT neck
        {
          OFFSET 0 14.38658 9.616178
          CHANNELS 3 Zrotation Xrotation Yrotation
          End Site
          {
            OFFSET 0 20 0
          }
        }
      }
      JOINT right_manubrium
      {
        OFFSET -5.722621 16.35077 3.967754
        CHANNELS 3 Zrotation Xrotation Yrotation
        JOINT right_clavicle
        {
          OFFSET -13.16364 1.694482 -4.693211
          CHANNELS 3 Zrotation Xrotation Yrotation
          JOINT right_humerus
          {
            OFFSET -28.5034 -0.3100689 -2.792744
            CHANNELS 3 Zrotation Xrotation Yrotation
            JOINT right_radius
            {
              OFFSET -25.15693 0.02248979 -1.271978
              CHANNELS 3 Zrotation Xrotation Yrotation
              End Site
              {
                OFFSET -15 0 0
              }
            }
          }
        }
      }
      JOINT left_manubrium
      {
        OFFSET 5.722621 16.35077 3.967754
        CHANNELS 3 Zrotation Xrotation Yrotation
        JOINT left_clavicle
        {
          OFFSET 13.16364 1.694482 -4.693211
          CHANNELS 3 Zrotation Xrotation Yrotation
          JOINT left_humerus
          {
            OFFSET 29.39168 -1.063119 -2.237045
            CHANNELS 3 Zrotation Xrotation Yrotation
            JOINT left_radius
            {
              OFFSET 24.59957 -0.9528479 0.9047498
              CHANNELS 3 Zrotation Xrotation Yrotation
              End Site
              {
                OFFSET 15 -0 -0
              }
            }
          }
        }
      }
    }
  }
}
MOTION
Frames: 13
Frame Time: 0.0416666666667
1526.082 104.391 2502.328 4.200301 -1.45138 57.35009 1.497091 18.27453 5.3219 -0 19.32491 -0 2.275451 -12.79248 -0.5963694 0.7677718 -27.23675 -3.28252 -0 18.98148 -0 -5.604634 -7.589721 19.33426 -2.307927 0.4768504 5.435613 0.3303572 8.37943 -5.7201 1.164152 22.8707 7.329907 4.456849 -20.79086 7.133024 5.599957 -18.72814 11.04218 82.61404 39.10694 -13.27911 -0 0 15.07109 -18.1748 13.65338 10.06102 4.279088 -19.51361 -2.57186 -93.16666 33.4437 23.41842 0 0 -20.02131 -4.197771 14.78057 22.47952
1532.855 104.0833 2505.105 4.833517 -0.9764028 57.22224 -0.07205979 18.37138 5.732269 -0 28.51271 -0 3.425258 -7.742804 -1.154878 -1.478922 -24.4631 -4.914203 -0 20.11516 -0 -4.733262 -7.880438 18.88843 -2.428337 0.449118 5.397979 0.3891137 8.382635 -5.729688 1.163886 22.89002 7.276252 4.419655 -20.75698 7.084992 5.63066 -18.75694 11.06304 82.47069 38.98665 -13.12047 -0 0 15.12007 -18.2041 13.57346 10.14623 4.20312 -19.42133 -2.613376 -93.11381 33.36148 23.36882 0 0 -19.82059 -4.273668 14.75734 22.46619
1539.684 104.5741 2507.836 5.805458 -0.7845272 57.58179 -1.063821 16.174 5.716839 -0 39.58076 -0 4.169584 -2.708881 -2.427575 -3.685381 -20.12532 -6.4069 -0 22.30111 -0 -3.789794 -8.682137 18.38804 -2.649888 0.3694974 5.211199 0.5330233 8.287936 -5.803656 1.169181 22.95677 7.216151 4.379622 -20.76662 7.05728 5.723865 -18.73857 11.06079 82.41371 38.7992 -13.15805 -0 0 15.1046 -17.87008 13.29563 10.07435 4.112014 -19.24415 -2.700857 -93.1971 33.59908 23.33365 0 0 -19.56012 -4.648568 14.87337 22.6939
1546.182 105.6489 2510.42 6.809704 -1.105508 58.40834 -1.126488 11.6928 5.328385 -0 49.05787 -0 4.271625 0.4686998 -4.095122 -5.049043 -14.87918 -7.220866 -0 23.20668 -0 -2.960427 -9.813547 18.10228 -2.96764 0.2818889 4.907213 0.7389932 8.10819 -5.9019 1.164656 23.08303 7.174734 4.334438 -20.81844 7.054731 5.849336 -18.68761 11.05987 82.40115 38.62743 -13.25585 -0 0 15.02044 -17.42528 12.91231 9.996337 3.943862 -18.9379 -2.835104 -93.37244 34.03945 23.34157 0 0 -19.15225 -5.269265 15.0246 23.10331
1552.216 106.9188 2512.824 7.589804 -1.719064 59.51884 -0.643751 5.902665 4.858633 -0 54.25967 -0 3.859477 1.555899 -5.617649 -5.530802 -9.505906 -7.476889 -0 22.37305 -0 -2.391023 -10.96509 17.84535 -3.362806 0.2185848 4.514972 0.9978258 7.869111 -6.004473 1.13481 23.26219 7.166826 4.275547 -20.91253 7.073126 5.977717 -18.60447 11.0873 82.39821 38.50341 -13.31479 -0 0 14.85775 -17.08299 12.50788 10.03872 3.66674 -18.49378 -3.001117 -93.54784 34.50274 23.34915 0 0 -18.54103 -6.03146 15.11512 23.56334
1557.846 108.0535 2515.072 8.051494 -2.285905 60.72507 -0.09772485 -0.1712747 4.415088 -0 55.10281 -0 3.236488 1.202557 -6.77401 -5.528973 -4.462578 -7.546022 -0 20.56146 -0 -2.187888 -12.10734 17.37785 -3.789168 0.1847738 4.050789 1.316974 7.603984 -6.127536 1.069748 23.46206 7.195324 4.194539 -21.06721 7.107083 6.088852 -18.46756 11.159 82.43053 38.39962 -13.37239 -0 0 14.58627 -16.90402 12.12897 10.22621 3.305836 -17.96606 -3.17447 -93.6209 34.8268 23.2558 0 0 -17.77137 -6.799983 15.0996 23.91359
1563.182 108.8519 2517.221 8.17976 -2.630436 61.90624 0.2924445 -6.031631 3.944022 -0 52.69221 -0 2.573701 0.05625333 -7.584988 -5.361817 0.1247701 -7.656777 -0 18.43846 -0 -2.357223 -13.34459 16.64088 -4.185131 0.1649379 3.520129 1.712063 7.340677 -6.307387 0.9659613 23.63871 7.25546 4.086248 -21.32069 7.155444 6.168829 -18.24713 11.27652 82.57668 38.25512 -13.57679 -0 0 14.16565 -16.81154 11.77638 10.49576 2.917532 -17.44106 -3.340608 -93.52714 34.92832 22.97077 0 0 -16.97237 -7.461057 14.97206 24.03309
1568.325 109.2008 2519.327 8.006109 -2.717513 62.9941 0.4700151 -11.48159 3.40538 -0 47.92754 -0 1.92408 -1.479825 -8.131507 -5.18068 4.252905 -7.88244 -0 16.35833 -0 -2.824117 -14.73976 15.71785 -4.485173 0.1402528 2.934782 2.190019 7.098701 -6.573572 0.8259869 23.75066 7.337684 3.950546 -21.71216 7.218104 6.203482 -17.92364 11.43049 82.91885 38.00945 -14.08943 -0 0 13.56898 -16.67391 11.42643 10.75052 2.56096 -17.00583 -3.498347 -93.25465 34.79804 22.45774 0 0 -16.31103 -7.935803 14.73894 23.86554
1573.365 109.0469 2521.444 7.592949 -2.560048 63.95235 0.4350348 -16.36727 2.800526 -0 41.40622 -0 1.329062 -3.131779 -8.496353 -5.056559 7.922944 -8.201754 -0 14.56765 -0 -3.472915 -16.28435 14.74386 -4.637983 0.09890493 2.327965 2.735944 6.894172 -6.929601 0.6593793 23.76956 7.427206 3.793254 -22.25459 7.289638 6.181387 -17.50513 11.60569 83.48583 37.62594 -14.98584 -0 0 12.80936 -16.38415 11.05691 10.90935 2.279794 -16.72555 -3.652786 -92.8376 34.47193 21.75071 0 0 -15.93244 -8.177615 14.40894 23.41919
1578.391 108.4006 2523.624 7.021357 -2.19114 64.77209 0.2357024 -20.51069 2.167012 -0 33.77111 -0 0.8487175 -4.597452 -8.745926 -5.024488 11.12106 -8.531963 -0 13.33011 -0 -4.175579 -17.88565 13.84763 -4.626171 0.03683172 1.757083 3.308803 6.746019 -7.347409 0.4831482 23.68754 7.504614 3.625975 -22.91367 7.35669 6.103569 -17.0355 11.78547 84.223 37.1048 -16.20384 -0 0 11.95516 -15.90932 10.66512 10.93547 2.094165 -16.62916 -3.806762 -92.34192 34.00626 20.94728 0 0 -15.90502 -8.172441 13.99864 22.75657
1583.51 107.347 2525.926 6.401622 -1.684064 65.47353 -0.009473218 -23.72415 1.597759 -0 25.89179 -0 0.5467929 -5.525879 -8.936418 -5.076634 13.86511 -8.748186 -0 12.96978 -0 -4.840572 -19.33988 13.11707 -4.476709 -0.04398548 1.290841 3.846792 6.676268 -7.774374 0.3195548 23.52106 7.550454 3.464763 -23.60209 7.401142 5.990366 -16.58549 11.95383 85.00562 36.49212 -17.5557 -0 0 11.11964 -15.30614 10.27717 10.843 2.001301 -16.70428 -3.955881 -91.84464 33.4627 20.17766 0 0 -16.19125 -7.943779 13.54273 21.97866
1588.851 106.0559 2528.421 5.876481 -1.177677 66.09924 -0.09919363 -25.81248 1.25964 -0 18.88949 -0 0.4574661 -5.627825 -9.130651 -5.137577 16.24492 -8.722958 -0 13.91308 -0 -5.506404 -20.30942 12.56152 -4.252465 -0.135722 0.9830704 4.284963 6.701062 -8.151482 0.1898768 23.30758 7.552578 3.326456 -24.20121 7.407303 5.876513 -16.22492 12.09678 85.69232 35.87458 -18.8025 -0 0 10.41993 -14.69905 9.943656 10.6837 1.982668 -16.90424 -4.089517 -91.40666 32.89668 19.5515 0 0 -16.66278 -7.551839 13.0943 21.1979
1594.559 104.7873 2531.202 5.599781 -0.8899465 66.68275 0.2415034 -26.51394 1.397453 -0 14.10141 -0 0.5273996 -4.901673 -9.400503 -5.045383 18.35284 -8.407227 -0 16.75559 -0 -6.397289 -20.30861 12.12604 -4.02644 -0.2245035 0.8480286 4.578304 6.816053 -8.433818 0.1067983 23.09374 7.512893 3.224145 -24.60751 7.370218 5.79463 -15.9925 12.20426 86.18449 35.35243 -19.74864 -0 0 9.930031 -14.22829 9.720158 10.52246 2.013574 -17.16455 -4.195426 -91.05472 32.35249 19.1145 0 0 -17.15769 -7.082948 12.71057 20.51089
